# xmcd
#
# Track frame offsets:
#	150
#	16579
#	36324
#	52574
#	73382
#	88162
#	105184
#	129935
#	149347
#	165776
#	185521
#	201771
#	222579
#	237359
#	254380
#	279131
#	309930
#
# Disc length: 4145 seconds
#
# Revision: 1
# Processed by: cddbd v1.5.2PL0 Copyright (c) Steve Scherf et al.
# Submitted via: audiograbber 1.83.01
#
DISCID=df102f11
DTITLE=Gretchen Wilson and Big and Rich - SCSS2466
DYEAR=1900
DGENRE=Karaoke - Country
TTITLE0=Big and Rich - Save A Horse (Ride A Cowboy)
TTITLE1=Gretchen Wilson - When I Think About Cheatin'
TTITLE2=Gretchen Wilson - Here For The Party
TTITLE3=Big and Rich - Holy Water
TTITLE4=Gretchen Wilson - When It Rains
TTITLE5=Gretchen Wilson - Redneck Woman
TTITLE6=Gretchen Wilson - Pocanontas Proud
TTITLE7=Big and Rich - Wild West Show (Duet Version)
TTITLE8=Big and Rich - Save A Horse (Ride A Cowboy) (vocal)
TTITLE9=Gretchen Wilson - When I Think About Cheatin' (vocal)
TTITLE10=Gretchen Wilson - Here For The Party (vocal)
TTITLE11=Big and Rich - Holy Water (vocal)
TTITLE12=Gretchen Wilson - When It Rains (vocal)
TTITLE13=Gretchen Wilson - Redneck Woman (vocal)
TTITLE14=Gretchen Wilson - Pocanontas Proud (vocal)
TTITLE15=Big and Rich - Wild West Show (vocal) (Duet Version)
TTITLE16=Data Track - Data Track
EXTD=
EXTT0=
EXTT1=
EXTT2=
EXTT3=
EXTT4=
EXTT5=
EXTT6=
EXTT7=
EXTT8=
EXTT9=
EXTT10=
EXTT11=
EXTT12=
EXTT13=
EXTT14=
EXTT15=
EXTT16=
PLAYORDER=
